<?xml version="1.0" encoding="UTF-8"?>
<!DOCTYPE svg PUBLIC "-//W3C//DTD SVG 1.1//EN" "http://www.w3.org/Graphics/SVG/1.1/DTD/svg11.dtd">
<!-- Creator: CorelDRAW 2021.5 -->
<svg xmlns="http://www.w3.org/2000/svg" xml:space="preserve" width="129px" height="54px" version="1.1" style="shape-rendering:geometricPrecision; text-rendering:geometricPrecision; image-rendering:optimizeQuality; fill-rule:evenodd; clip-rule:evenodd"
viewBox="0 0 137.58 57.45"
 xmlns:xlink="http://www.w3.org/1999/xlink"
 xmlns:xodm="http://www.corel.com/coreldraw/odm/2003">
 <defs>
  <style type="text/css">
   <![CDATA[
    .str0 {stroke:#CCCCCC;stroke-width:0.63;stroke-linejoin:round;stroke-miterlimit:1}
    .fil0 {fill:#CCCCCC}
    .fil1 {fill:#127DE8;fill-rule:nonzero}
   ]]>
  </style>
 </defs>
 <g id="Слой_x0020_1">
  <metadata id="CorelCorpID_0Corel-Layer"/>
  <g id="_2097546407808">
   <polygon class="fil0 str0" points="66.26,5.73 67.34,9.07 64.5,7 61.66,9.07 62.74,5.73 59.9,3.66 63.41,3.66 64.5,0.32 65.59,3.66 69.1,3.66 "/>
   <polygon class="fil0 str0" points="54.21,9.54 52.65,12.69 52.06,9.22 48.58,8.72 51.7,7.08 51.1,3.62 53.62,6.07 56.73,4.44 55.17,7.59 57.69,10.05 "/>
   <polygon class="fil0 str0" points="46.23,14.39 49.6,15.4 46.28,16.57 46.36,20.08 44.23,17.29 40.91,18.45 42.91,15.56 40.78,12.77 44.14,13.77 46.14,10.88 "/>
   <polygon class="fil0 str0" points="41.47,24.57 44.92,23.9 42.52,26.47 44.23,29.55 41.04,28.06 38.65,30.64 39.07,27.15 35.88,25.67 39.33,24.99 39.76,21.5 "/>
   <polygon class="fil0 str0" points="40.29,37.16 39.04,33.88 41.98,35.8 44.72,33.6 43.8,36.99 46.74,38.92 43.23,39.09 42.3,42.48 41.06,39.19 37.55,39.36 "/>
   <polygon class="fil0 str0" points="47.66,45.5 49.06,42.28 49.82,45.71 53.32,46.05 50.29,47.84 51.05,51.27 48.41,48.94 45.38,50.72 46.79,47.5 44.16,45.17 "/>
   <polygon class="fil0 str0" points="57.19,51.46 56.93,47.95 59.2,50.64 62.46,49.31 60.6,52.3 62.87,54.99 59.46,54.15 57.6,57.13 57.35,53.63 53.93,52.78 "/>
   <polygon class="fil0 str0" points="68.4,52.3 66.54,49.31 69.8,50.64 72.07,47.95 71.81,51.46 75.07,52.78 71.65,53.63 71.4,57.13 69.54,54.15 66.13,54.99 "/>
   <polygon class="fil0 str0" points="79.18,45.71 79.94,42.28 81.34,45.5 84.84,45.17 82.21,47.5 83.62,50.72 80.59,48.94 77.95,51.27 78.71,47.84 75.68,46.05 "/>
   <polygon class="fil0 str0" points="85.77,39.09 82.26,38.92 85.2,36.99 84.28,33.6 87.02,35.8 89.96,33.88 88.71,37.16 91.45,39.36 87.94,39.19 86.7,42.48 "/>
   <polygon class="fil0 str0" points="89.93,27.15 90.35,30.64 87.96,28.06 84.77,29.55 86.48,26.47 84.08,23.9 87.53,24.57 89.24,21.5 89.67,24.99 93.12,25.67 "/>
   <polygon class="fil0 str0" points="86.09,15.56 88.09,18.45 84.77,17.29 82.64,20.08 82.72,16.57 79.4,15.4 82.77,14.39 82.86,10.88 84.86,13.77 88.22,12.77 "/>
   <polygon class="fil0 str0" points="76.94,9.22 76.35,12.69 74.79,9.54 71.31,10.05 73.83,7.59 72.27,4.44 75.38,6.07 77.9,3.62 77.3,7.08 80.42,8.72 "/>
  </g>
  <path class="fil1" d="M11.09 21.13c0.15,-0.25 0.38,-0.42 0.67,-0.51 0.29,-0.09 0.66,-0.14 1.1,-0.14 0.44,0 0.79,0.04 1.05,0.12 0.27,0.07 0.47,0.17 0.61,0.27 0.13,0.11 0.23,0.27 0.3,0.49 0.09,0.26 0.13,0.66 0.13,1.2l0 6.99c0,2.04 -0.63,3.89 -1.89,5.56 -0.62,0.79 -1.42,1.42 -2.39,1.91 -0.97,0.49 -2.05,0.73 -3.23,0.73 -1.18,0 -2.25,-0.25 -3.22,-0.74 -0.96,-0.49 -1.74,-1.14 -2.34,-1.95 -1.26,-1.63 -1.88,-3.48 -1.88,-5.55l0 -6.97c0,-0.37 0.01,-0.64 0.03,-0.82 0.03,-0.18 0.1,-0.38 0.22,-0.61 0.13,-0.24 0.34,-0.4 0.63,-0.49 0.29,-0.09 0.69,-0.14 1.18,-0.14 0.49,0 0.89,0.05 1.18,0.14 0.29,0.09 0.49,0.25 0.6,0.49 0.19,0.35 0.28,0.84 0.28,1.45l0 6.95c0,0.94 0.23,1.84 0.7,2.68 0.23,0.44 0.57,0.78 1.04,1.05 0.46,0.26 1.01,0.39 1.64,0.39 1.13,0 1.97,-0.42 2.52,-1.25 0.56,-0.83 0.84,-1.8 0.84,-2.89l0 -7.09c0,-0.6 0.07,-1.02 0.23,-1.27z"/>
  <path id="_1" class="fil1" d="M16.37 35.09c-0.4,-0.5 -0.6,-0.94 -0.6,-1.33 0,-0.4 0.33,-0.92 0.99,-1.57 0.39,-0.37 0.8,-0.55 1.23,-0.55 0.43,0 1.03,0.38 1.8,1.16 0.22,0.26 0.53,0.51 0.93,0.75 0.4,0.24 0.77,0.36 1.11,0.36 1.44,0 2.15,-0.59 2.15,-1.76 0,-0.36 -0.19,-0.65 -0.59,-0.89 -0.39,-0.24 -0.88,-0.42 -1.47,-0.52 -0.58,-0.11 -1.22,-0.29 -1.9,-0.53 -0.67,-0.23 -1.31,-0.52 -1.89,-0.84 -0.59,-0.32 -1.08,-0.84 -1.47,-1.54 -0.4,-0.7 -0.59,-1.55 -0.59,-2.53 0,-1.36 0.5,-2.55 1.51,-3.56 1.01,-1.01 2.39,-1.51 4.13,-1.51 0.93,0 1.78,0.11 2.54,0.35 0.76,0.24 1.29,0.49 1.59,0.73l0.57 0.44c0.48,0.45 0.72,0.83 0.72,1.14 0,0.31 -0.18,0.73 -0.55,1.27 -0.53,0.77 -1.07,1.16 -1.62,1.16 -0.33,0 -0.73,-0.16 -1.21,-0.46 -0.04,-0.04 -0.13,-0.11 -0.26,-0.24 -0.14,-0.12 -0.25,-0.22 -0.36,-0.3 -0.33,-0.2 -0.74,-0.3 -1.24,-0.3 -0.5,0 -0.92,0.12 -1.25,0.36 -0.33,0.24 -0.5,0.57 -0.5,1 0,0.42 0.2,0.76 0.59,1.03 0.39,0.26 0.88,0.44 1.47,0.53 0.59,0.09 1.23,0.23 1.92,0.43 0.7,0.19 1.34,0.43 1.92,0.7 0.59,0.28 1.08,0.76 1.47,1.45 0.4,0.69 0.59,1.53 0.59,2.54 0,1 -0.2,1.88 -0.6,2.65 -0.4,0.76 -0.92,1.35 -1.57,1.77 -1.25,0.81 -2.59,1.22 -4.01,1.22 -0.72,0 -1.41,-0.08 -2.06,-0.26 -0.65,-0.18 -1.17,-0.4 -1.57,-0.66 -0.82,-0.5 -1.39,-0.97 -1.71,-1.44l-0.21 -0.25z"/>
  <path id="_2" class="fil1" d="M38.48 21.71l6.25 12.91c0.26,0.53 0.39,0.92 0.39,1.19 0,0.55 -0.45,1.05 -1.34,1.5 -0.53,0.26 -0.94,0.39 -1.24,0.39 -0.3,0 -0.55,-0.07 -0.74,-0.2 -0.2,-0.14 -0.33,-0.29 -0.42,-0.44 -0.08,-0.16 -0.2,-0.39 -0.36,-0.7l-1.2 -2.5 -6.41 0 -1.21 2.5c-0.15,0.31 -0.27,0.53 -0.36,0.67 -0.08,0.14 -0.22,0.28 -0.41,0.43 -0.2,0.15 -0.44,0.22 -0.74,0.22 -0.31,0 -0.72,-0.13 -1.24,-0.39 -0.9,-0.44 -1.35,-0.93 -1.35,-1.48 0,-0.27 0.14,-0.66 0.4,-1.19l6.25 -12.94c0.17,-0.35 0.43,-0.64 0.77,-0.85 0.35,-0.22 0.72,-0.33 1.1,-0.33 0.84,0 1.45,0.4 1.86,1.21zm-1.88 5.55l-1.53 3.17 3.08 0 -1.55 -3.17z"/>
  <path id="_3" class="fil1" d="M55.24 27.24l4.07 0c0.83,0.03 1.34,0.25 1.53,0.65 0.15,0.29 0.23,0.72 0.23,1.29l0 5.1c0,0.49 -0.22,0.96 -0.65,1.41 -1.29,1.34 -3.24,2.01 -5.83,2.01 -2.3,0 -4.3,-0.86 -6,-2.6 -1.7,-1.74 -2.54,-3.83 -2.54,-6.29 0,-2.45 0.86,-4.5 2.59,-6.14 1.73,-1.65 3.76,-2.47 6.11,-2.47 1.82,0 3.54,0.6 5.16,1.81 0.42,0.31 0.63,0.65 0.63,1.03 0,0.38 -0.18,0.81 -0.54,1.31 -0.6,0.81 -1.14,1.22 -1.64,1.22 -0.29,0 -0.76,-0.21 -1.41,-0.63 -0.65,-0.43 -1.42,-0.64 -2.32,-0.64 -1.17,0 -2.21,0.41 -3.12,1.24 -0.91,0.82 -1.37,1.9 -1.37,3.24 0,1.33 0.47,2.47 1.39,3.4 0.93,0.94 1.98,1.4 3.15,1.4 0.85,0 1.61,-0.14 2.29,-0.41l0 -2.53 -1.83 0c-0.48,0 -0.81,-0.06 -1.02,-0.18 -0.2,-0.13 -0.33,-0.31 -0.39,-0.55 -0.06,-0.24 -0.09,-0.56 -0.09,-0.97 0,-0.41 0.03,-0.74 0.1,-0.98 0.07,-0.25 0.2,-0.42 0.38,-0.51 0.28,-0.14 0.65,-0.21 1.12,-0.21z"/>
  <path id="_4" class="fil1" d="M62.92 22.54c0,-0.35 0.01,-0.62 0.04,-0.8 0.02,-0.18 0.09,-0.38 0.22,-0.61 0.21,-0.42 0.81,-0.63 1.8,-0.63 1.08,0 1.72,0.29 1.92,0.86 0.08,0.26 0.12,0.66 0.12,1.2l0 12.87c0,0.38 -0.01,0.65 -0.04,0.82 -0.02,0.16 -0.09,0.37 -0.22,0.6 -0.21,0.41 -0.81,0.62 -1.8,0.62 -1.08,0 -1.71,-0.29 -1.9,-0.88 -0.09,-0.24 -0.14,-0.64 -0.14,-1.18l0 -12.87z"/>
  <path id="_5" class="fil1" d="M80.1 20.5c0.35,0 0.62,0.01 0.8,0.04 0.18,0.02 0.38,0.09 0.6,0.22 0.22,0.12 0.38,0.33 0.47,0.62 0.1,0.3 0.14,0.69 0.14,1.18 0,0.5 -0.04,0.89 -0.14,1.18 -0.09,0.3 -0.25,0.5 -0.48,0.62 -0.23,0.11 -0.44,0.18 -0.61,0.21 -0.18,0.02 -0.46,0.03 -0.83,0.03l-7.08 0 0 2.34 4.56 0c0.37,0 0.64,0.01 0.82,0.03 0.18,0.03 0.38,0.1 0.62,0.22 0.4,0.24 0.6,0.84 0.6,1.83 0,1.08 -0.3,1.72 -0.88,1.92 -0.25,0.08 -0.64,0.12 -1.18,0.12l-4.54 0 0 4.37c0,0.38 -0.01,0.65 -0.04,0.82 -0.02,0.16 -0.09,0.37 -0.22,0.6 -0.21,0.41 -0.81,0.62 -1.8,0.62 -1.08,0 -1.71,-0.29 -1.9,-0.88 -0.09,-0.24 -0.14,-0.64 -0.14,-1.18l0 -12.87c0,-0.79 0.15,-1.32 0.44,-1.61 0.29,-0.28 0.85,-0.43 1.67,-0.43l9.12 0z"/>
  <path id="_6" class="fil1" d="M83.73 33.65c0.27,0.26 0.4,0.81 0.4,1.62l0 0.1c0,0.37 -0.01,0.64 -0.04,0.82 -0.02,0.17 -0.1,0.39 -0.24,0.63 -0.23,0.45 -0.81,0.68 -1.75,0.68 -0.93,0 -1.55,-0.15 -1.85,-0.44 -0.3,-0.3 -0.45,-0.85 -0.45,-1.67l0 -0.09c0,-0.36 0.01,-0.63 0.03,-0.81 0.03,-0.19 0.1,-0.4 0.22,-0.63 0.23,-0.46 0.82,-0.69 1.75,-0.69 0.93,0 1.58,0.16 1.93,0.48z"/>
  <path id="_7" class="fil1" d="M96.24 33.03l0.41 -0.3c0.53,-0.31 0.9,-0.47 1.11,-0.47 0.48,0 1,0.44 1.55,1.3 0.34,0.54 0.51,0.97 0.51,1.3 0,0.32 -0.1,0.59 -0.31,0.81 -0.21,0.21 -0.45,0.41 -0.73,0.58 -0.28,0.16 -0.54,0.33 -0.8,0.48 -0.25,0.16 -0.77,0.36 -1.56,0.6 -0.79,0.25 -1.55,0.37 -2.28,0.37 -0.73,0 -1.47,-0.09 -2.22,-0.29 -0.75,-0.19 -1.52,-0.51 -2.32,-0.97 -0.79,-0.45 -1.51,-1.01 -2.14,-1.66 -0.63,-0.66 -1.15,-1.5 -1.56,-2.53 -0.41,-1.02 -0.61,-2.14 -0.61,-3.34 0,-1.21 0.2,-2.3 0.6,-3.28 0.4,-0.98 0.91,-1.79 1.54,-2.43 0.62,-0.64 1.34,-1.18 2.14,-1.61 1.51,-0.83 3.03,-1.25 4.56,-1.25 0.72,0 1.46,0.11 2.21,0.34 0.75,0.22 1.31,0.45 1.7,0.68l0.56 0.32c0.27,0.17 0.49,0.31 0.64,0.42 0.41,0.32 0.61,0.69 0.61,1.1 0,0.41 -0.17,0.84 -0.49,1.28 -0.6,0.84 -1.14,1.26 -1.62,1.26 -0.28,0 -0.67,-0.17 -1.18,-0.51 -0.65,-0.53 -1.51,-0.79 -2.59,-0.79 -1.01,0 -1.99,0.35 -2.97,1.04 -0.46,0.34 -0.85,0.82 -1.15,1.44 -0.31,0.61 -0.47,1.31 -0.47,2.09 0,0.78 0.16,1.48 0.47,2.1 0.3,0.61 0.7,1.1 1.18,1.45 0.94,0.68 1.92,1.02 2.94,1.02 0.47,0 0.93,-0.06 1.35,-0.18 0.43,-0.13 0.73,-0.25 0.92,-0.37z"/>
  <path id="_8" class="fil1" d="M109.31 20.29c2.29,0 4.27,0.83 5.95,2.48 1.69,1.65 2.53,3.7 2.53,6.15 0,2.44 -0.8,4.53 -2.41,6.25 -1.6,1.72 -3.58,2.58 -5.93,2.58 -2.34,0 -4.34,-0.85 -5.98,-2.55 -1.64,-1.69 -2.47,-3.72 -2.47,-6.06 0,-1.28 0.24,-2.48 0.7,-3.6 0.46,-1.12 1.08,-2.06 1.85,-2.81 0.77,-0.76 1.66,-1.35 2.66,-1.79 1.01,-0.43 2.04,-0.65 3.1,-0.65zm-4.21 8.73c0,1.38 0.45,2.49 1.33,3.35 0.89,0.85 1.88,1.28 2.98,1.28 1.09,0 2.08,-0.41 2.96,-1.25 0.88,-0.83 1.32,-1.95 1.32,-3.35 0,-1.41 -0.44,-2.54 -1.33,-3.38 -0.89,-0.85 -1.88,-1.28 -2.98,-1.28 -1.09,0 -2.08,0.43 -2.96,1.29 -0.88,0.85 -1.32,1.97 -1.32,3.34z"/>
  <path id="_9" class="fil1" d="M137.33 21.15c0.12,0.23 0.19,0.44 0.22,0.63 0.02,0.18 0.03,0.45 0.03,0.81l0 12.84c0,1.07 -0.29,1.69 -0.88,1.88 -0.29,0.09 -0.66,0.14 -1.11,0.14 -0.45,0 -0.8,-0.04 -1.06,-0.12 -0.27,-0.07 -0.47,-0.17 -0.61,-0.27 -0.14,-0.11 -0.24,-0.27 -0.32,-0.47 -0.08,-0.26 -0.12,-0.66 -0.12,-1.2l0 -7.76c-0.38,0.48 -0.95,1.24 -1.69,2.28 -0.74,1.05 -1.21,1.7 -1.41,1.96 -0.2,0.26 -0.34,0.44 -0.42,0.54 -0.07,0.1 -0.26,0.24 -0.56,0.42 -0.3,0.18 -0.63,0.27 -0.97,0.27 -0.35,0 -0.67,-0.08 -0.95,-0.25 -0.29,-0.16 -0.49,-0.32 -0.62,-0.47l-0.18 -0.26c-0.31,-0.38 -0.92,-1.2 -1.83,-2.46 -0.91,-1.26 -1.41,-1.93 -1.48,-2.03l0 7.8c0,0.36 -0.01,0.63 -0.04,0.8 -0.02,0.18 -0.09,0.38 -0.22,0.59 -0.23,0.42 -0.83,0.63 -1.8,0.63 -0.94,0 -1.53,-0.21 -1.76,-0.63 -0.13,-0.21 -0.2,-0.41 -0.22,-0.6 -0.03,-0.18 -0.04,-0.46 -0.04,-0.83l0 -12.85c0,-0.35 0.01,-0.62 0.04,-0.8 0.02,-0.18 0.09,-0.38 0.22,-0.61 0.23,-0.4 0.83,-0.6 1.8,-0.6 0.42,0 0.78,0.05 1.08,0.15 0.3,0.1 0.5,0.2 0.59,0.31l0.14 0.14 5.25 6.9c2.63,-3.48 4.38,-5.77 5.26,-6.88 0.26,-0.42 0.88,-0.62 1.86,-0.62 0.98,0 1.58,0.2 1.8,0.62z"/>
 </g>
</svg>
